<mxfile host="app.diagrams.net" modified="2023-05-04T19:34:08.121Z" agent="Mozilla/5.0 (Windows NT 10.0; Win64; x64) AppleWebKit/537.36 (KHTML, like Gecko) Chrome/113.0.0.0 Safari/537.36" etag="aN5hdUXvZsLh6dy-BH0E" version="21.2.8">
  <diagram name="PÃ¡gina-1" id="X0VC76wBkYyavwrtYPWe">
    <mxGraphModel dx="1147" dy="622" grid="1" gridSize="10" guides="1" tooltips="1" connect="1" arrows="1" fold="1" page="1" pageScale="1" pageWidth="827" pageHeight="1169" math="0" shadow="0">
      <root>
        <mxCell id="0" />
        <mxCell id="1" parent="0" />
        <mxCell id="Uff0Iv12SB4FQCS0Loj--1" value="Actor" style="shape=umlActor;verticalLabelPosition=bottom;verticalAlign=top;html=1;outlineConnect=0;" vertex="1" parent="1">
          <mxGeometry x="40" y="160" width="30" height="60" as="geometry" />
        </mxCell>
        <mxCell id="Uff0Iv12SB4FQCS0Loj--2" value="" style="html=1;points=[];perimeter=orthogonalPerimeter;outlineConnect=0;targetShapes=umlLifeline;portConstraint=eastwest;newEdgeStyle={&quot;edgeStyle&quot;:&quot;elbowEdgeStyle&quot;,&quot;elbow&quot;:&quot;vertical&quot;,&quot;curved&quot;:0,&quot;rounded&quot;:0};" vertex="1" parent="1">
          <mxGeometry x="50" y="250" width="10" height="310" as="geometry" />
        </mxCell>
        <mxCell id="Uff0Iv12SB4FQCS0Loj--3" value="UI" style="shape=umlBoundary;whiteSpace=wrap;html=1;" vertex="1" parent="1">
          <mxGeometry x="205" y="160" width="100" height="80" as="geometry" />
        </mxCell>
        <mxCell id="Uff0Iv12SB4FQCS0Loj--4" value="Gestor Viajero" style="ellipse;shape=umlControl;whiteSpace=wrap;html=1;" vertex="1" parent="1">
          <mxGeometry x="379" y="160" width="70" height="80" as="geometry" />
        </mxCell>
        <mxCell id="Uff0Iv12SB4FQCS0Loj--5" value="Viajero" style="ellipse;shape=umlEntity;whiteSpace=wrap;html=1;" vertex="1" parent="1">
          <mxGeometry x="510" y="160" width="80" height="80" as="geometry" />
        </mxCell>
        <mxCell id="Uff0Iv12SB4FQCS0Loj--6" value="Gestor Acumular Millas" style="ellipse;shape=umlControl;whiteSpace=wrap;html=1;" vertex="1" parent="1">
          <mxGeometry x="660" y="160" width="70" height="80" as="geometry" />
        </mxCell>
        <mxCell id="Uff0Iv12SB4FQCS0Loj--7" value="Acumular Millas" style="ellipse;shape=umlEntity;whiteSpace=wrap;html=1;" vertex="1" parent="1">
          <mxGeometry x="827" y="160" width="80" height="80" as="geometry" />
        </mxCell>
        <mxCell id="Uff0Iv12SB4FQCS0Loj--8" value="" style="html=1;points=[];perimeter=orthogonalPerimeter;outlineConnect=0;targetShapes=umlLifeline;portConstraint=eastwest;newEdgeStyle={&quot;edgeStyle&quot;:&quot;elbowEdgeStyle&quot;,&quot;elbow&quot;:&quot;vertical&quot;,&quot;curved&quot;:0,&quot;rounded&quot;:0};" vertex="1" parent="1">
          <mxGeometry x="250" y="250" width="10" height="310" as="geometry" />
        </mxCell>
        <mxCell id="Uff0Iv12SB4FQCS0Loj--9" value="" style="html=1;points=[];perimeter=orthogonalPerimeter;outlineConnect=0;targetShapes=umlLifeline;portConstraint=eastwest;newEdgeStyle={&quot;edgeStyle&quot;:&quot;elbowEdgeStyle&quot;,&quot;elbow&quot;:&quot;vertical&quot;,&quot;curved&quot;:0,&quot;rounded&quot;:0};" vertex="1" parent="1">
          <mxGeometry x="409" y="250" width="10" height="310" as="geometry" />
        </mxCell>
        <mxCell id="Uff0Iv12SB4FQCS0Loj--10" value="" style="html=1;points=[];perimeter=orthogonalPerimeter;outlineConnect=0;targetShapes=umlLifeline;portConstraint=eastwest;newEdgeStyle={&quot;edgeStyle&quot;:&quot;elbowEdgeStyle&quot;,&quot;elbow&quot;:&quot;vertical&quot;,&quot;curved&quot;:0,&quot;rounded&quot;:0};" vertex="1" parent="1">
          <mxGeometry x="545" y="250" width="10" height="310" as="geometry" />
        </mxCell>
        <mxCell id="Uff0Iv12SB4FQCS0Loj--11" value="" style="html=1;points=[];perimeter=orthogonalPerimeter;outlineConnect=0;targetShapes=umlLifeline;portConstraint=eastwest;newEdgeStyle={&quot;edgeStyle&quot;:&quot;elbowEdgeStyle&quot;,&quot;elbow&quot;:&quot;vertical&quot;,&quot;curved&quot;:0,&quot;rounded&quot;:0};" vertex="1" parent="1">
          <mxGeometry x="690" y="250" width="10" height="310" as="geometry" />
        </mxCell>
        <mxCell id="Uff0Iv12SB4FQCS0Loj--12" value="" style="html=1;points=[];perimeter=orthogonalPerimeter;outlineConnect=0;targetShapes=umlLifeline;portConstraint=eastwest;newEdgeStyle={&quot;edgeStyle&quot;:&quot;elbowEdgeStyle&quot;,&quot;elbow&quot;:&quot;vertical&quot;,&quot;curved&quot;:0,&quot;rounded&quot;:0};" vertex="1" parent="1">
          <mxGeometry x="862" y="250" width="10" height="310" as="geometry" />
        </mxCell>
        <mxCell id="Uff0Iv12SB4FQCS0Loj--13" value="Opcion&amp;nbsp;Acumular Millas" style="html=1;verticalAlign=bottom;endArrow=block;edgeStyle=elbowEdgeStyle;elbow=vertical;curved=0;rounded=0;" edge="1" parent="1">
          <mxGeometry width="80" relative="1" as="geometry">
            <mxPoint x="60" y="323" as="sourcePoint" />
            <mxPoint x="250" y="323" as="targetPoint" />
            <mxPoint as="offset" />
          </mxGeometry>
        </mxCell>
        <mxCell id="Uff0Iv12SB4FQCS0Loj--14" value="Busca viajero" style="html=1;verticalAlign=bottom;endArrow=block;edgeStyle=elbowEdgeStyle;elbow=vertical;curved=0;rounded=0;" edge="1" parent="1">
          <mxGeometry width="80" relative="1" as="geometry">
            <mxPoint x="259" y="400.65999999999997" as="sourcePoint" />
            <mxPoint x="409" y="400.65999999999997" as="targetPoint" />
          </mxGeometry>
        </mxCell>
        <mxCell id="Uff0Iv12SB4FQCS0Loj--15" value="Verifica viajero ingresado" style="html=1;verticalAlign=bottom;endArrow=block;edgeStyle=elbowEdgeStyle;elbow=vertical;curved=0;rounded=0;" edge="1" parent="1">
          <mxGeometry width="80" relative="1" as="geometry">
            <mxPoint x="419" y="410" as="sourcePoint" />
            <mxPoint x="544.9999999999998" y="410.2413793103449" as="targetPoint" />
          </mxGeometry>
        </mxCell>
        <mxCell id="Uff0Iv12SB4FQCS0Loj--16" value="Acumula nuevas millas&amp;nbsp;&lt;br&gt;al viajero" style="html=1;verticalAlign=bottom;endArrow=block;edgeStyle=elbowEdgeStyle;elbow=vertical;curved=0;rounded=0;" edge="1" parent="1">
          <mxGeometry width="80" relative="1" as="geometry">
            <mxPoint x="555" y="420" as="sourcePoint" />
            <mxPoint x="690" y="420" as="targetPoint" />
          </mxGeometry>
        </mxCell>
        <mxCell id="Uff0Iv12SB4FQCS0Loj--17" value="Suma nuevas millas al viajero" style="html=1;verticalAlign=bottom;endArrow=block;edgeStyle=elbowEdgeStyle;elbow=vertical;curved=0;rounded=0;" edge="1" parent="1">
          <mxGeometry width="80" relative="1" as="geometry">
            <mxPoint x="700" y="430" as="sourcePoint" />
            <mxPoint x="862" y="430.2413793103449" as="targetPoint" />
          </mxGeometry>
        </mxCell>
        <mxCell id="Uff0Iv12SB4FQCS0Loj--18" value="devuelve nuevo valor de millas" style="html=1;verticalAlign=bottom;endArrow=open;dashed=1;endSize=8;edgeStyle=elbowEdgeStyle;elbow=vertical;curved=0;rounded=0;" edge="1" parent="1">
          <mxGeometry relative="1" as="geometry">
            <mxPoint x="860" y="454" as="sourcePoint" />
            <mxPoint x="699.9999999999998" y="454.2413793103449" as="targetPoint" />
          </mxGeometry>
        </mxCell>
        <mxCell id="Uff0Iv12SB4FQCS0Loj--19" value="devuelve millas" style="html=1;verticalAlign=bottom;endArrow=open;dashed=1;endSize=8;edgeStyle=elbowEdgeStyle;elbow=vertical;curved=0;rounded=0;" edge="1" parent="1">
          <mxGeometry relative="1" as="geometry">
            <mxPoint x="690" y="464" as="sourcePoint" />
            <mxPoint x="554.9999999999998" y="463.8965517241379" as="targetPoint" />
          </mxGeometry>
        </mxCell>
        <mxCell id="Uff0Iv12SB4FQCS0Loj--20" value="devuelve viajero con&amp;nbsp;&lt;br&gt;sus nuevas millas" style="html=1;verticalAlign=bottom;endArrow=open;dashed=1;endSize=8;edgeStyle=elbowEdgeStyle;elbow=vertical;curved=0;rounded=0;" edge="1" parent="1">
          <mxGeometry x="-0.0042" relative="1" as="geometry">
            <mxPoint x="545" y="477.8571428571429" as="sourcePoint" />
            <mxPoint x="419" y="478" as="targetPoint" />
            <mxPoint as="offset" />
          </mxGeometry>
        </mxCell>
        <mxCell id="Uff0Iv12SB4FQCS0Loj--21" value="devuelve datos al usuario" style="html=1;verticalAlign=bottom;endArrow=open;dashed=1;endSize=8;edgeStyle=elbowEdgeStyle;elbow=vertical;curved=0;rounded=0;" edge="1" parent="1">
          <mxGeometry relative="1" as="geometry">
            <mxPoint x="409" y="488.5" as="sourcePoint" />
            <mxPoint x="260" y="488.71428571428567" as="targetPoint" />
          </mxGeometry>
        </mxCell>
        <mxCell id="Uff0Iv12SB4FQCS0Loj--38" value="Numero de viajero frecuente y&amp;nbsp;&lt;br&gt;cantidad de millas" style="html=1;verticalAlign=bottom;endArrow=open;dashed=1;endSize=8;edgeStyle=elbowEdgeStyle;elbow=vertical;curved=0;rounded=0;" edge="1" parent="1" target="Uff0Iv12SB4FQCS0Loj--2">
          <mxGeometry relative="1" as="geometry">
            <mxPoint x="250" y="360.5" as="sourcePoint" />
            <mxPoint x="101" y="360" as="targetPoint" />
          </mxGeometry>
        </mxCell>
        <mxCell id="Uff0Iv12SB4FQCS0Loj--39" value="Ingreso viajero y millas" style="html=1;verticalAlign=bottom;endArrow=block;edgeStyle=elbowEdgeStyle;elbow=vertical;curved=0;rounded=0;" edge="1" parent="1">
          <mxGeometry width="80" relative="1" as="geometry">
            <mxPoint x="60" y="390" as="sourcePoint" />
            <mxPoint x="250" y="390" as="targetPoint" />
            <mxPoint as="offset" />
          </mxGeometry>
        </mxCell>
        <mxCell id="Uff0Iv12SB4FQCS0Loj--41" value="muestra al viajero con sus nuevas&lt;br&gt;millas" style="html=1;verticalAlign=bottom;endArrow=open;dashed=1;endSize=8;edgeStyle=elbowEdgeStyle;elbow=vertical;curved=0;rounded=0;" edge="1" parent="1">
          <mxGeometry relative="1" as="geometry">
            <mxPoint x="250" y="503.5" as="sourcePoint" />
            <mxPoint x="60" y="503.71428571428567" as="targetPoint" />
          </mxGeometry>
        </mxCell>
        <mxCell id="Uff0Iv12SB4FQCS0Loj--42" value="Actor" style="shape=umlActor;verticalLabelPosition=bottom;verticalAlign=top;html=1;outlineConnect=0;" vertex="1" parent="1">
          <mxGeometry x="50" y="680" width="30" height="60" as="geometry" />
        </mxCell>
        <mxCell id="Uff0Iv12SB4FQCS0Loj--43" value="" style="html=1;points=[];perimeter=orthogonalPerimeter;outlineConnect=0;targetShapes=umlLifeline;portConstraint=eastwest;newEdgeStyle={&quot;edgeStyle&quot;:&quot;elbowEdgeStyle&quot;,&quot;elbow&quot;:&quot;vertical&quot;,&quot;curved&quot;:0,&quot;rounded&quot;:0};" vertex="1" parent="1">
          <mxGeometry x="60" y="770" width="10" height="360" as="geometry" />
        </mxCell>
        <mxCell id="Uff0Iv12SB4FQCS0Loj--44" value="UI" style="shape=umlBoundary;whiteSpace=wrap;html=1;" vertex="1" parent="1">
          <mxGeometry x="215" y="680" width="100" height="80" as="geometry" />
        </mxCell>
        <mxCell id="Uff0Iv12SB4FQCS0Loj--45" value="Gestor Viajero" style="ellipse;shape=umlControl;whiteSpace=wrap;html=1;" vertex="1" parent="1">
          <mxGeometry x="389" y="680" width="70" height="80" as="geometry" />
        </mxCell>
        <mxCell id="Uff0Iv12SB4FQCS0Loj--46" value="Viajero" style="ellipse;shape=umlEntity;whiteSpace=wrap;html=1;" vertex="1" parent="1">
          <mxGeometry x="520" y="680" width="80" height="80" as="geometry" />
        </mxCell>
        <mxCell id="Uff0Iv12SB4FQCS0Loj--47" value="Gestor Canjear Millas" style="ellipse;shape=umlControl;whiteSpace=wrap;html=1;" vertex="1" parent="1">
          <mxGeometry x="670" y="680" width="70" height="80" as="geometry" />
        </mxCell>
        <mxCell id="Uff0Iv12SB4FQCS0Loj--48" value="Canjear &lt;br&gt;Millas" style="ellipse;shape=umlEntity;whiteSpace=wrap;html=1;" vertex="1" parent="1">
          <mxGeometry x="837" y="680" width="80" height="80" as="geometry" />
        </mxCell>
        <mxCell id="Uff0Iv12SB4FQCS0Loj--49" value="" style="html=1;points=[];perimeter=orthogonalPerimeter;outlineConnect=0;targetShapes=umlLifeline;portConstraint=eastwest;newEdgeStyle={&quot;edgeStyle&quot;:&quot;elbowEdgeStyle&quot;,&quot;elbow&quot;:&quot;vertical&quot;,&quot;curved&quot;:0,&quot;rounded&quot;:0};" vertex="1" parent="1">
          <mxGeometry x="260" y="770" width="10" height="360" as="geometry" />
        </mxCell>
        <mxCell id="Uff0Iv12SB4FQCS0Loj--50" value="" style="html=1;points=[];perimeter=orthogonalPerimeter;outlineConnect=0;targetShapes=umlLifeline;portConstraint=eastwest;newEdgeStyle={&quot;edgeStyle&quot;:&quot;elbowEdgeStyle&quot;,&quot;elbow&quot;:&quot;vertical&quot;,&quot;curved&quot;:0,&quot;rounded&quot;:0};" vertex="1" parent="1">
          <mxGeometry x="419" y="770" width="10" height="300" as="geometry" />
        </mxCell>
        <mxCell id="Uff0Iv12SB4FQCS0Loj--51" value="" style="html=1;points=[];perimeter=orthogonalPerimeter;outlineConnect=0;targetShapes=umlLifeline;portConstraint=eastwest;newEdgeStyle={&quot;edgeStyle&quot;:&quot;elbowEdgeStyle&quot;,&quot;elbow&quot;:&quot;vertical&quot;,&quot;curved&quot;:0,&quot;rounded&quot;:0};" vertex="1" parent="1">
          <mxGeometry x="555" y="770" width="10" height="300" as="geometry" />
        </mxCell>
        <mxCell id="Uff0Iv12SB4FQCS0Loj--52" value="" style="html=1;points=[];perimeter=orthogonalPerimeter;outlineConnect=0;targetShapes=umlLifeline;portConstraint=eastwest;newEdgeStyle={&quot;edgeStyle&quot;:&quot;elbowEdgeStyle&quot;,&quot;elbow&quot;:&quot;vertical&quot;,&quot;curved&quot;:0,&quot;rounded&quot;:0};" vertex="1" parent="1">
          <mxGeometry x="700" y="770" width="10" height="350" as="geometry" />
        </mxCell>
        <mxCell id="Uff0Iv12SB4FQCS0Loj--53" value="" style="html=1;points=[];perimeter=orthogonalPerimeter;outlineConnect=0;targetShapes=umlLifeline;portConstraint=eastwest;newEdgeStyle={&quot;edgeStyle&quot;:&quot;elbowEdgeStyle&quot;,&quot;elbow&quot;:&quot;vertical&quot;,&quot;curved&quot;:0,&quot;rounded&quot;:0};" vertex="1" parent="1">
          <mxGeometry x="872" y="770" width="10" height="350" as="geometry" />
        </mxCell>
        <mxCell id="Uff0Iv12SB4FQCS0Loj--54" value="Opcion&amp;nbsp;Canjear Millas" style="html=1;verticalAlign=bottom;endArrow=block;edgeStyle=elbowEdgeStyle;elbow=vertical;curved=0;rounded=0;" edge="1" parent="1">
          <mxGeometry width="80" relative="1" as="geometry">
            <mxPoint x="70" y="843" as="sourcePoint" />
            <mxPoint x="260" y="843" as="targetPoint" />
            <mxPoint as="offset" />
          </mxGeometry>
        </mxCell>
        <mxCell id="Uff0Iv12SB4FQCS0Loj--55" value="Busca viajero" style="html=1;verticalAlign=bottom;endArrow=block;edgeStyle=elbowEdgeStyle;elbow=vertical;curved=0;rounded=0;" edge="1" parent="1">
          <mxGeometry width="80" relative="1" as="geometry">
            <mxPoint x="269" y="920.66" as="sourcePoint" />
            <mxPoint x="419" y="920.66" as="targetPoint" />
          </mxGeometry>
        </mxCell>
        <mxCell id="Uff0Iv12SB4FQCS0Loj--56" value="Verifica viajero ingresado" style="html=1;verticalAlign=bottom;endArrow=block;edgeStyle=elbowEdgeStyle;elbow=vertical;curved=0;rounded=0;" edge="1" parent="1">
          <mxGeometry width="80" relative="1" as="geometry">
            <mxPoint x="429" y="930" as="sourcePoint" />
            <mxPoint x="554.9999999999998" y="930.2413793103449" as="targetPoint" />
          </mxGeometry>
        </mxCell>
        <mxCell id="Uff0Iv12SB4FQCS0Loj--57" value="Busca cantidad de millas" style="html=1;verticalAlign=bottom;endArrow=block;edgeStyle=elbowEdgeStyle;elbow=vertical;curved=0;rounded=0;" edge="1" parent="1">
          <mxGeometry width="80" relative="1" as="geometry">
            <mxPoint x="565" y="940" as="sourcePoint" />
            <mxPoint x="700" y="940" as="targetPoint" />
          </mxGeometry>
        </mxCell>
        <mxCell id="Uff0Iv12SB4FQCS0Loj--58" value="Canjea las millas" style="html=1;verticalAlign=bottom;endArrow=block;edgeStyle=elbowEdgeStyle;elbow=vertical;curved=0;rounded=0;" edge="1" parent="1">
          <mxGeometry x="0.0015" width="80" relative="1" as="geometry">
            <mxPoint x="710" y="950" as="sourcePoint" />
            <mxPoint x="872" y="950.2413793103449" as="targetPoint" />
            <mxPoint as="offset" />
          </mxGeometry>
        </mxCell>
        <mxCell id="Uff0Iv12SB4FQCS0Loj--59" value="devuelve nuevo valor de millas" style="html=1;verticalAlign=bottom;endArrow=open;dashed=1;endSize=8;edgeStyle=elbowEdgeStyle;elbow=vertical;curved=0;rounded=0;" edge="1" parent="1">
          <mxGeometry relative="1" as="geometry">
            <mxPoint x="870" y="974" as="sourcePoint" />
            <mxPoint x="709.9999999999998" y="974.2413793103449" as="targetPoint" />
          </mxGeometry>
        </mxCell>
        <mxCell id="Uff0Iv12SB4FQCS0Loj--60" value="devuelve millas" style="html=1;verticalAlign=bottom;endArrow=open;dashed=1;endSize=8;edgeStyle=elbowEdgeStyle;elbow=vertical;curved=0;rounded=0;" edge="1" parent="1">
          <mxGeometry relative="1" as="geometry">
            <mxPoint x="700" y="984" as="sourcePoint" />
            <mxPoint x="564.9999999999998" y="983.8965517241379" as="targetPoint" />
          </mxGeometry>
        </mxCell>
        <mxCell id="Uff0Iv12SB4FQCS0Loj--61" value="devuelve viajero con&amp;nbsp;&lt;br&gt;sus nuevas millas" style="html=1;verticalAlign=bottom;endArrow=open;dashed=1;endSize=8;edgeStyle=elbowEdgeStyle;elbow=vertical;curved=0;rounded=0;" edge="1" parent="1">
          <mxGeometry x="-0.0042" relative="1" as="geometry">
            <mxPoint x="555" y="997.8571428571429" as="sourcePoint" />
            <mxPoint x="429" y="998" as="targetPoint" />
            <mxPoint as="offset" />
          </mxGeometry>
        </mxCell>
        <mxCell id="Uff0Iv12SB4FQCS0Loj--62" value="devuelve datos al usuario" style="html=1;verticalAlign=bottom;endArrow=open;dashed=1;endSize=8;edgeStyle=elbowEdgeStyle;elbow=vertical;curved=0;rounded=0;" edge="1" parent="1">
          <mxGeometry relative="1" as="geometry">
            <mxPoint x="419" y="1008.5" as="sourcePoint" />
            <mxPoint x="270" y="1008.7142857142857" as="targetPoint" />
          </mxGeometry>
        </mxCell>
        <mxCell id="Uff0Iv12SB4FQCS0Loj--63" value="Numero de viajero frecuente y&amp;nbsp;&lt;br&gt;cantidad de millas a canjear" style="html=1;verticalAlign=bottom;endArrow=open;dashed=1;endSize=8;edgeStyle=elbowEdgeStyle;elbow=vertical;curved=0;rounded=0;" edge="1" parent="1" target="Uff0Iv12SB4FQCS0Loj--43">
          <mxGeometry relative="1" as="geometry">
            <mxPoint x="260" y="880.5" as="sourcePoint" />
            <mxPoint x="111" y="880" as="targetPoint" />
          </mxGeometry>
        </mxCell>
        <mxCell id="Uff0Iv12SB4FQCS0Loj--64" value="Ingreso viajero y millas" style="html=1;verticalAlign=bottom;endArrow=block;edgeStyle=elbowEdgeStyle;elbow=vertical;curved=0;rounded=0;" edge="1" parent="1">
          <mxGeometry width="80" relative="1" as="geometry">
            <mxPoint x="70" y="910" as="sourcePoint" />
            <mxPoint x="260" y="910" as="targetPoint" />
            <mxPoint as="offset" />
          </mxGeometry>
        </mxCell>
        <mxCell id="Uff0Iv12SB4FQCS0Loj--65" value="muestra al usuario que pudo canjear&lt;br&gt;millas y su nuevo valor de millas" style="html=1;verticalAlign=bottom;endArrow=open;dashed=1;endSize=8;edgeStyle=elbowEdgeStyle;elbow=vertical;curved=0;rounded=0;" edge="1" parent="1">
          <mxGeometry relative="1" as="geometry">
            <mxPoint x="260" y="1021.5" as="sourcePoint" />
            <mxPoint x="70" y="1021.7142857142857" as="targetPoint" />
          </mxGeometry>
        </mxCell>
        <mxCell id="Uff0Iv12SB4FQCS0Loj--66" value="alt" style="shape=umlFrame;whiteSpace=wrap;html=1;pointerEvents=0;" vertex="1" parent="1">
          <mxGeometry x="260" y="350" width="640" height="220" as="geometry" />
        </mxCell>
        <mxCell id="Uff0Iv12SB4FQCS0Loj--67" value="Si encuentra &lt;br&gt;al viajero:" style="text;html=1;align=center;verticalAlign=middle;resizable=0;points=[];autosize=1;strokeColor=none;fillColor=none;" vertex="1" parent="1">
          <mxGeometry x="319" y="345" width="90" height="40" as="geometry" />
        </mxCell>
        <mxCell id="Uff0Iv12SB4FQCS0Loj--68" value="Si no lo encuentra:" style="text;html=1;align=center;verticalAlign=middle;resizable=0;points=[];autosize=1;strokeColor=none;fillColor=none;" vertex="1" parent="1">
          <mxGeometry x="263" y="495" width="120" height="30" as="geometry" />
        </mxCell>
        <mxCell id="Uff0Iv12SB4FQCS0Loj--69" value="viajero no encontrado" style="html=1;verticalAlign=bottom;endArrow=open;dashed=1;endSize=8;edgeStyle=elbowEdgeStyle;elbow=vertical;curved=0;rounded=0;" edge="1" parent="1">
          <mxGeometry x="-0.0042" relative="1" as="geometry">
            <mxPoint x="545" y="532.9971428571429" as="sourcePoint" />
            <mxPoint x="419" y="533.14" as="targetPoint" />
            <mxPoint as="offset" />
          </mxGeometry>
        </mxCell>
        <mxCell id="Uff0Iv12SB4FQCS0Loj--70" value="viajero no encontrado" style="html=1;verticalAlign=bottom;endArrow=open;dashed=1;endSize=8;edgeStyle=elbowEdgeStyle;elbow=vertical;curved=0;rounded=0;" edge="1" parent="1">
          <mxGeometry x="-0.0042" relative="1" as="geometry">
            <mxPoint x="409" y="541.2871428571428" as="sourcePoint" />
            <mxPoint x="260" y="541.4285714285716" as="targetPoint" />
            <mxPoint as="offset" />
          </mxGeometry>
        </mxCell>
        <mxCell id="Uff0Iv12SB4FQCS0Loj--71" value="viajero no encontrado" style="html=1;verticalAlign=bottom;endArrow=open;dashed=1;endSize=8;edgeStyle=elbowEdgeStyle;elbow=vertical;curved=0;rounded=0;" edge="1" parent="1">
          <mxGeometry x="-0.0042" relative="1" as="geometry">
            <mxPoint x="250" y="549.2871428571428" as="sourcePoint" />
            <mxPoint x="60" y="549.4285714285716" as="targetPoint" />
            <mxPoint as="offset" />
          </mxGeometry>
        </mxCell>
        <mxCell id="Uff0Iv12SB4FQCS0Loj--72" value="alt" style="shape=umlFrame;whiteSpace=wrap;html=1;pointerEvents=0;" vertex="1" parent="1">
          <mxGeometry x="710" y="900" width="180" height="100" as="geometry" />
        </mxCell>
        <mxCell id="Uff0Iv12SB4FQCS0Loj--73" value="Si tiene &amp;gt;= cantidad de millas" style="text;html=1;align=center;verticalAlign=middle;resizable=0;points=[];autosize=1;strokeColor=none;fillColor=none;" vertex="1" parent="1">
          <mxGeometry x="697" y="870" width="180" height="30" as="geometry" />
        </mxCell>
        <mxCell id="Uff0Iv12SB4FQCS0Loj--74" value="Si tiene &amp;lt;= cantidad de millas" style="text;html=1;align=center;verticalAlign=middle;resizable=0;points=[];autosize=1;strokeColor=none;fillColor=none;" vertex="1" parent="1">
          <mxGeometry x="700" y="1003" width="180" height="30" as="geometry" />
        </mxCell>
        <mxCell id="Uff0Iv12SB4FQCS0Loj--75" value="muestra mensaje que no puede&lt;br&gt;canjear millas" style="html=1;verticalAlign=bottom;endArrow=open;dashed=1;endSize=8;edgeStyle=elbowEdgeStyle;elbow=vertical;curved=0;rounded=0;" edge="1" parent="1">
          <mxGeometry relative="1" as="geometry">
            <mxPoint x="871" y="1080.02" as="sourcePoint" />
            <mxPoint x="708.9999999999998" y="1080.015294117647" as="targetPoint" />
          </mxGeometry>
        </mxCell>
        <mxCell id="Uff0Iv12SB4FQCS0Loj--76" value="muestra mensaje" style="html=1;verticalAlign=bottom;endArrow=open;dashed=1;endSize=8;edgeStyle=elbowEdgeStyle;elbow=vertical;curved=0;rounded=0;" edge="1" parent="1">
          <mxGeometry relative="1" as="geometry">
            <mxPoint x="700" y="1091.24" as="sourcePoint" />
            <mxPoint x="270" y="1091.1162790697674" as="targetPoint" />
          </mxGeometry>
        </mxCell>
        <mxCell id="Uff0Iv12SB4FQCS0Loj--77" value="no tiene las millas necesarias para&lt;br&gt;canjear" style="html=1;verticalAlign=bottom;endArrow=open;dashed=1;endSize=8;edgeStyle=elbowEdgeStyle;elbow=vertical;curved=0;rounded=0;" edge="1" parent="1">
          <mxGeometry x="-0.0012" relative="1" as="geometry">
            <mxPoint x="260" y="1103" as="sourcePoint" />
            <mxPoint x="70" y="1103.2142857142858" as="targetPoint" />
            <mxPoint as="offset" />
          </mxGeometry>
        </mxCell>
        <mxCell id="Uff0Iv12SB4FQCS0Loj--78" value="alt" style="shape=umlFrame;whiteSpace=wrap;html=1;pointerEvents=0;" vertex="1" parent="1">
          <mxGeometry x="270" y="870" width="640" height="160" as="geometry" />
        </mxCell>
        <mxCell id="Uff0Iv12SB4FQCS0Loj--79" value="&lt;font style=&quot;font-size: 11px;&quot;&gt;Si encuentra &lt;br&gt;al viajero:&lt;/font&gt;" style="text;html=1;align=center;verticalAlign=middle;resizable=0;points=[];autosize=1;strokeColor=none;fillColor=none;" vertex="1" parent="1">
          <mxGeometry x="329" y="865" width="90" height="40" as="geometry" />
        </mxCell>
        <mxCell id="Uff0Iv12SB4FQCS0Loj--81" value="Si no lo encuentra:" style="text;html=1;align=center;verticalAlign=middle;resizable=0;points=[];autosize=1;strokeColor=none;fillColor=none;" vertex="1" parent="1">
          <mxGeometry x="280" y="1009" width="120" height="30" as="geometry" />
        </mxCell>
        <mxCell id="Uff0Iv12SB4FQCS0Loj--82" value="viajero no encontrado" style="html=1;verticalAlign=bottom;endArrow=open;dashed=1;endSize=8;edgeStyle=elbowEdgeStyle;elbow=vertical;curved=0;rounded=0;" edge="1" parent="1">
          <mxGeometry x="-0.0042" relative="1" as="geometry">
            <mxPoint x="555" y="1049.1971428571428" as="sourcePoint" />
            <mxPoint x="429" y="1049.34" as="targetPoint" />
            <mxPoint as="offset" />
          </mxGeometry>
        </mxCell>
        <mxCell id="Uff0Iv12SB4FQCS0Loj--83" value="viajero no encontrado" style="html=1;verticalAlign=bottom;endArrow=open;dashed=1;endSize=8;edgeStyle=elbowEdgeStyle;elbow=vertical;curved=0;rounded=0;" edge="1" parent="1">
          <mxGeometry x="-0.0042" relative="1" as="geometry">
            <mxPoint x="419" y="1054.9971428571428" as="sourcePoint" />
            <mxPoint x="270" y="1055.1385714285716" as="targetPoint" />
            <mxPoint as="offset" />
          </mxGeometry>
        </mxCell>
        <mxCell id="Uff0Iv12SB4FQCS0Loj--84" value="viajero no encontrado" style="html=1;verticalAlign=bottom;endArrow=open;dashed=1;endSize=8;edgeStyle=elbowEdgeStyle;elbow=vertical;curved=0;rounded=0;" edge="1" parent="1">
          <mxGeometry x="-0.0042" relative="1" as="geometry">
            <mxPoint x="260" y="1064.4471428571428" as="sourcePoint" />
            <mxPoint x="70" y="1064.5885714285716" as="targetPoint" />
            <mxPoint as="offset" />
          </mxGeometry>
        </mxCell>
      </root>
    </mxGraphModel>
  </diagram>
</mxfile>
